{
  "accessors": [
    {
      "bufferView": 2,
      "componentType": 5126,
      "count": 3129,
      "max": [
        0.18385499715805054,
        0.3060239851474762,
        0.21187099814414978
      ],
      "min": [
        -0.18380700051784515,
        0.0006339999963529408,
        -0.12076699733734131
      ],
      "type": "VEC3"
    },
    {
      "bufferView": 2,
      "byteOffset": 37548,
      "componentType": 5126,
      "count": 3129,
      "max": [
        1.0,
        1.0,
        1.0
      ],
      "min": [
        -1.0,
        -1.0,
        -1.0
      ],
      "type": "VEC3"
    },
    {
      "bufferView": 3,
      "componentType": 5126,
      "count": 3129,
      "max": [
        1.0,
        1.0,
        1.0,
        1.0
      ],
      "min": [
        -1.0,
        -1.0,
        -1.0,
        -1.0
      ],
      "type": "VEC4"
    },
    {
      "bufferView": 1,
      "componentType": 5126,
      "count": 3129,
      "max": [
        0.9976980090141296,
        0.9972019791603088
      ],
      "min": [
        0.0010219999821856618,
        0.003331005573272705
      ],
      "type": "VEC2"
    },
    {
      "bufferView": 1,
      "byteOffset": 25032,
      "componentType": 5126,
      "count": 3129,
      "max": [
        0.9976980090141296,
        0.9972019791603088
      ],
      "min": [
        0.0010219999821856618,
        0.003331005573272705
      ],
      "type": "VEC2"
    },
    {
      "bufferView": 1,
      "byteOffset": 50064,
      "componentType": 5126,
      "count": 3129,
      "max": [
        0.9976980090141296,
        0.9972019791603088
      ],
      "min": [
        0.0010219999821856618,
        0.003331005573272705
      ],
      "type": "VEC2"
    },
    {
      "bufferView": 1,
      "byteOffset": 75096,
      "componentType": 5126,
      "count": 3129,
      "max": [
        0.9976980090141296,
        0.9972019791603088
      ],
      "min": [
        0.0010219999821856618,
        0.003331005573272705
      ],
      "type": "VEC2"
    },
    {
      "bufferView": 1,
      "byteOffset": 100128,
      "componentType": 5126,
      "count": 3129,
      "max": [
        0.9976980090141296,
        0.9972019791603088
      ],
      "min": [
        0.0010219999821856618,
        0.003331005573272705
      ],
      "type": "VEC2"
    },
    {
      "bufferView": 0,
      "componentType": 5125,
      "count": 9522,
      "type": "SCALAR"
    },
    {
      "bufferView": 2,
      "byteOffset": 75096,
      "componentType": 5126,
      "count": 4,
      "max": [
        0.166253000497818,
        0.2718600034713745,
        -0.09346699714660645
      ],
      "min": [
        -0.1662060022354126,
        0.06508400291204453,
        -0.10402999818325043
      ],
      "type": "VEC3"
    },
    {
      "bufferView": 2,
      "byteOffset": 75144,
      "componentType": 5126,
      "count": 4,
      "max": [
        6.999996003287379e-06,
        0.04713696986436844,
        0.9988884329795837
      ],
      "min": [
        6.999996003287379e-06,
        0.04713696986436844,
        0.9988884329795837
      ],
      "type": "VEC3"
    },
    {
      "bufferView": 3,
      "byteOffset": 50064,
      "componentType": 5126,
      "count": 4,
      "max": [
        1.0,
        -3.299586524008191e-07,
        -6.992215730861062e-06,
        1.0
      ],
      "min": [
        1.0,
        -3.2995868082252855e-07,
        -6.992216185608413e-06,
        1.0
      ],
      "type": "VEC4"
    },
    {
      "bufferView": 1,
      "byteOffset": 125160,
      "componentType": 5126,
      "count": 4,
      "max": [
        0.999920129776001,
        0.8002016544342041
      ],
      "min": [
        0.0006845593452453613,
        0.19995588064193726
      ],
      "type": "VEC2"
    },
    {
      "bufferView": 1,
      "byteOffset": 125192,
      "componentType": 5126,
      "count": 4,
      "max": [
        0.999920129776001,
        0.8002016544342041
      ],
      "min": [
        0.0006845593452453613,
        0.19995588064193726
      ],
      "type": "VEC2"
    },
    {
      "bufferView": 1,
      "byteOffset": 125224,
      "componentType": 5126,
      "count": 4,
      "max": [
        0.999920129776001,
        0.8002016544342041
      ],
      "min": [
        0.0006845593452453613,
        0.19995588064193726
      ],
      "type": "VEC2"
    },
    {
      "bufferView": 1,
      "byteOffset": 125256,
      "componentType": 5126,
      "count": 4,
      "max": [
        0.999920129776001,
        0.8002016544342041
      ],
      "min": [
        0.0006845593452453613,
        0.19995588064193726
      ],
      "type": "VEC2"
    },
    {
      "bufferView": 1,
      "byteOffset": 125288,
      "componentType": 5126,
      "count": 4,
      "max": [
        0.999920129776001,
        0.8002016544342041
      ],
      "min": [
        0.0006845593452453613,
        0.19995588064193726
      ],
      "type": "VEC2"
    },
    {
      "bufferView": 0,
      "byteOffset": 38088,
      "componentType": 5125,
      "count": 6,
      "type": "SCALAR"
    }
  ],
  "asset": {
    "extras": {
      "author": "MaX3Dd (https://sketchfab.com/MaX3Dd)",
      "license": "CC-BY-4.0 (http://creativecommons.org/licenses/by/4.0/)",
      "source": "https://sketchfab.com/3d-models/laptop-low-poly-712c7a8568db47598dc4e1876a0bd3bb",
      "title": "Laptop Low-poly"
    },
    "generator": "Sketchfab-14.20.0",
    "version": "2.0"
  },
  "bufferViews": [
    {
      "buffer": 0,
      "byteLength": 38112,
      "name": "floatBufferViews",
      "target": 34963
    },
    {
      "buffer": 0,
      "byteLength": 125320,
      "byteOffset": 38112,
      "byteStride": 8,
      "name": "floatBufferViews",
      "target": 34962
    },
    {
      "buffer": 0,
      "byteLength": 75192,
      "byteOffset": 163432,
      "byteStride": 12,
      "name": "floatBufferViews",
      "target": 34962
    },
    {
      "buffer": 0,
      "byteLength": 50128,
      "byteOffset": 238624,
      "byteStride": 16,
      "name": "floatBufferViews",
      "target": 34962
    }
  ],
  "buffers": [
    {
      "byteLength": 288752,
      "uri": "scene.bin"
    }
  ],
  "images": [
    {
      "uri": "textures/laptop_baseColor.png"
    },
    {
      "uri": "textures/laptop_metallicRoughness.png"
    },
    {
      "uri": "textures/laptop_normal.png"
    },
    {
      "uri": "textures/laptopScreen_baseColor.png"
    },
    {
      "uri": "textures/laptopScreen_metallicRoughness.png"
    },
    {
      "uri": "textures/laptopScreen_normal.png"
    }
  ],
  "materials": [
    {
      "doubleSided": true,
      "name": "laptop",
      "normalTexture": {
        "index": 2
      },
      "occlusionTexture": {
        "index": 1
      },
      "pbrMetallicRoughness": {
        "baseColorTexture": {
          "index": 0
        },
        "metallicRoughnessTexture": {
          "index": 1
        }
      }
    },
    {
      "doubleSided": true,
      "name": "laptopScreen",
      "normalTexture": {
        "index": 5
      },
      "occlusionTexture": {
        "index": 4
      },
      "pbrMetallicRoughness": {
        "baseColorTexture": {
          "index": 3
        },
        "metallicRoughnessTexture": {
          "index": 4
        }
      }
    }
  ],
  "meshes": [
    {
      "name": "laptop_laptop_0",
      "primitives": [
        {
          "attributes": {
            "NORMAL": 1,
            "POSITION": 0,
            "TANGENT": 2,
            "TEXCOORD_0": 3,
            "TEXCOORD_1": 4,
            "TEXCOORD_2": 5,
            "TEXCOORD_3": 6,
            "TEXCOORD_4": 7
          },
          "indices": 8,
          "material": 0,
          "mode": 4
        }
      ]
    },
    {
      "name": "screen_laptopScreen_0",
      "primitives": [
        {
          "attributes": {
            "NORMAL": 10,
            "POSITION": 9,
            "TANGENT": 11,
            "TEXCOORD_0": 12,
            "TEXCOORD_1": 13,
            "TEXCOORD_2": 14,
            "TEXCOORD_3": 15,
            "TEXCOORD_4": 16
          },
          "indices": 17,
          "material": 1,
          "mode": 4
        }
      ]
    }
  ],
  "nodes": [
    {
      "children": [
        1
      ],
      "matrix": [
        1.0,
        0.0,
        0.0,
        0.0,
        0.0,
        2.220446049250313e-16,
        -1.0,
        0.0,
        0.0,
        1.0,
        2.220446049250313e-16,
        0.0,
        0.0,
        0.0,
        0.0,
        1.0
      ],
      "name": "Sketchfab_model"
    },
    {
      "children": [
        2
      ],
      "matrix": [
        0.009999999776482582,
        0.0,
        0.0,
        0.0,
        0.0,
        0.0,
        0.009999999776482582,
        0.0,
        0.0,
        -0.009999999776482582,
        0.0,
        0.0,
        0.0,
        0.0,
        0.0,
        1.0
      ],
      "name": "laptop.fbx"
    },
    {
      "children": [
        3,
        6
      ],
      "name": "RootNode"
    },
    {
      "children": [
        4
      ],
      "matrix": [
        97.60365295410156,
        0.0,
        0.0,
        0.0,
        0.0,
        97.60365295410026,
        1.5901654490680187e-05,
        0.0,
        0.0,
        -1.5901654490680187e-05,
        97.60365295410026,
        0.0,
        0.0,
        14.965469360351563,
        0.0,
        1.0
      ],
      "name": "laptop"
    },
    {
      "children": [
        5
      ],
      "matrix": [
        1.0,
        0.0,
        -0.0,
        0.0,
        0.0,
        1.0,
        0.0,
        0.0,
        0.0,
        0.0,
        1.0,
        0.0,
        -2.3997301468625665e-05,
        -0.153328999876976,
        -0.04555201157927513,
        1.0
      ],
      "name": "Object_4"
    },
    {
      "mesh": 0,
      "name": "laptop_laptop_0"
    },
    {
      "children": [
        7
      ],
      "matrix": [
        97.60365295410156,
        0.0,
        0.0,
        0.0,
        0.0,
        97.60365295410026,
        1.5901654490680187e-05,
        0.0,
        0.0,
        -1.5901654490680187e-05,
        97.60365295410026,
        0.0,
        -4.863739013671875e-05,
        16.443485260009766,
        -14.084256172180176,
        1.0
      ],
      "name": "screen"
    },
    {
      "children": [
        8
      ],
      "matrix": [
        1.0,
        0.0,
        -0.0,
        0.0,
        0.0,
        1.0,
        0.0,
        0.0,
        0.0,
        0.0,
        1.0,
        0.0,
        -2.349898568354547e-05,
        -0.168472021818161,
        0.09874849021434784,
        1.0
      ],
      "name": "Object_7"
    },
    {
      "mesh": 1,
      "name": "screen_laptopScreen_0"
    }
  ],
  "samplers": [
    {
      "magFilter": 9729,
      "minFilter": 9987,
      "wrapS": 10497,
      "wrapT": 10497
    }
  ],
  "scene": 0,
  "scenes": [
    {
      "name": "Sketchfab_Scene",
      "nodes": [
        0
      ]
    }
  ],
  "textures": [
    {
      "sampler": 0,
      "source": 0
    },
    {
      "sampler": 0,
      "source": 1
    },
    {
      "sampler": 0,
      "source": 2
    },
    {
      "sampler": 0,
      "source": 3
    },
    {
      "sampler": 0,
      "source": 4
    },
    {
      "sampler": 0,
      "source": 5
    }
  ]
}
