{
  "accessors": [
    {
      "bufferView": 2,
      "componentType": 5126,
      "count": 28,
      "max": [
        1.8669646978378296,
        2.448462963104248,
        -0.2611672282218933
      ],
      "min": [
        -1.8669646978378296,
        0.5630626678466797,
        -0.2611672282218933
      ],
      "type": "VEC3"
    },
    {
      "bufferView": 2,
      "byteOffset": 336,
      "componentType": 5126,
      "count": 28,
      "max": [
        0.0,
        6.619615966485526e-11,
        1.0
      ],
      "min": [
        0.0,
        6.619615966485526e-11,
        1.0
      ],
      "type": "VEC3"
    },
    {
      "bufferView": 1,
      "componentType": 5126,
      "count": 28,
      "max": [
        0.6195260286331177,
        0.9962756633758545
      ],
      "min": [
        0.3804739713668823,
        0.7532005310058594
      ],
      "type": "VEC2"
    },
    {
      "bufferView": 0,
      "componentType": 5125,
      "count": 78,
      "type": "SCALAR"
    },
    {
      "bufferView": 2,
      "byteOffset": 672,
      "componentType": 5126,
      "count": 452,
      "max": [
        1.9242645502090454,
        2.505762815475464,
        -0.23673224449157715
      ],
      "min": [
        -1.9242645502090454,
        0.5057628154754639,
        -0.5006232857704163
      ],
      "type": "VEC3"
    },
    {
      "bufferView": 2,
      "byteOffset": 6096,
      "componentType": 5126,
      "count": 452,
      "max": [
        1.0,
        1.0,
        1.0
      ],
      "min": [
        -1.0,
        -1.0,
        -1.0
      ],
      "type": "VEC3"
    },
    {
      "bufferView": 1,
      "byteOffset": 224,
      "componentType": 5126,
      "count": 452,
      "max": [
        0.875,
        1.0
      ],
      "min": [
        0.125,
        0.0
      ],
      "type": "VEC2"
    },
    {
      "bufferView": 0,
      "byteOffset": 312,
      "componentType": 5125,
      "count": 918,
      "type": "SCALAR"
    },
    {
      "bufferView": 2,
      "byteOffset": 11520,
      "componentType": 5126,
      "count": 282,
      "max": [
        1.5115774869918823,
        2.7585196495056152,
        4.6160688400268555
      ],
      "min": [
        -1.5115772485733032,
        1.8415647745132446,
        2.6160690784454346
      ],
      "type": "VEC3"
    },
    {
      "bufferView": 2,
      "byteOffset": 14904,
      "componentType": 5126,
      "count": 282,
      "max": [
        1.0,
        1.0,
        1.0
      ],
      "min": [
        -1.0,
        -1.0,
        -1.0
      ],
      "type": "VEC3"
    },
    {
      "bufferView": 1,
      "byteOffset": 3840,
      "componentType": 5126,
      "count": 282,
      "max": [
        1.0,
        1.0
      ],
      "min": [
        0.0,
        0.0
      ],
      "type": "VEC2"
    },
    {
      "bufferView": 0,
      "byteOffset": 3984,
      "componentType": 5125,
      "count": 546,
      "type": "SCALAR"
    },
    {
      "bufferView": 2,
      "byteOffset": 18288,
      "componentType": 5126,
      "count": 736,
      "max": [
        0.9994563460350037,
        1.0834492444992065,
        0.17010313272476196
      ],
      "min": [
        -1.011277437210083,
        -0.18542656302452087,
        -0.9430538415908813
      ],
      "type": "VEC3"
    },
    {
      "bufferView": 2,
      "byteOffset": 27120,
      "componentType": 5126,
      "count": 736,
      "max": [
        1.0,
        1.0,
        0.9991719722747803
      ],
      "min": [
        -1.0,
        -1.0,
        -1.0
      ],
      "type": "VEC3"
    },
    {
      "bufferView": 1,
      "byteOffset": 6096,
      "componentType": 5126,
      "count": 736,
      "max": [
        1.0,
        1.11069917678833
      ],
      "min": [
        0.0,
        0.0
      ],
      "type": "VEC2"
    },
    {
      "bufferView": 0,
      "byteOffset": 6168,
      "componentType": 5125,
      "count": 1464,
      "type": "SCALAR"
    }
  ],
  "asset": {
    "extras": {
      "author": "Marco Zakaria (https://sketchfab.com/marcoZakaria)",
      "license": "CC-BY-4.0 (http://creativecommons.org/licenses/by/4.0/)",
      "source": "https://sketchfab.com/3d-models/computer-monitor-lowpoly-model-1d4ee42eda804b02b05b63721921c1d7",
      "title": "Computer Monitor Lowpoly Model"
    },
    "generator": "Sketchfab-12.66.0",
    "version": "2.0"
  },
  "bufferViews": [
    {
      "buffer": 0,
      "byteLength": 12024,
      "name": "floatBufferViews",
      "target": 34963
    },
    {
      "buffer": 0,
      "byteLength": 11984,
      "byteOffset": 12024,
      "byteStride": 8,
      "name": "floatBufferViews",
      "target": 34962
    },
    {
      "buffer": 0,
      "byteLength": 35952,
      "byteOffset": 24008,
      "byteStride": 12,
      "name": "floatBufferViews",
      "target": 34962
    }
  ],
  "buffers": [
    {
      "byteLength": 59960,
      "uri": "scene.bin"
    }
  ],
  "materials": [
    {
      "doubleSided": true,
      "emissiveFactor": [
        1.0,
        1.0,
        1.0
      ],
      "name": "Display",
      "pbrMetallicRoughness": {
        "baseColorFactor": [
          0.8,
          0.8,
          0.8,
          1.0
        ],
        "metallicFactor": 0.357798,
        "roughnessFactor": 0.5
      }
    },
    {
      "doubleSided": true,
      "name": "Main",
      "pbrMetallicRoughness": {
        "baseColorFactor": [
          0.0122864884,
          0.0122864884,
          0.0122864884,
          1.0
        ],
        "metallicFactor": 0.0,
        "roughnessFactor": 0.5
      }
    },
    {
      "doubleSided": true,
      "name": "Stand",
      "pbrMetallicRoughness": {
        "baseColorFactor": [
          0.0125182254,
          0.0125182254,
          0.0125182254,
          1.0
        ],
        "metallicFactor": 0.0,
        "roughnessFactor": 0.5
      }
    },
    {
      "doubleSided": true,
      "name": "Main_MAt",
      "pbrMetallicRoughness": {
        "baseColorFactor": [
          0.0122864884,
          0.0122864884,
          0.0122864884,
          1.0
        ],
        "metallicFactor": 0.0,
        "roughnessFactor": 0.5
      }
    }
  ],
  "meshes": [
    {
      "name": "Object_0",
      "primitives": [
        {
          "attributes": {
            "NORMAL": 1,
            "POSITION": 0,
            "TEXCOORD_0": 2
          },
          "indices": 3,
          "material": 0,
          "mode": 4
        }
      ]
    },
    {
      "name": "Object_1",
      "primitives": [
        {
          "attributes": {
            "NORMAL": 5,
            "POSITION": 4,
            "TEXCOORD_0": 6
          },
          "indices": 7,
          "material": 1,
          "mode": 4
        }
      ]
    },
    {
      "name": "Object_2",
      "primitives": [
        {
          "attributes": {
            "NORMAL": 9,
            "POSITION": 8,
            "TEXCOORD_0": 10
          },
          "indices": 11,
          "material": 2,
          "mode": 4
        }
      ]
    },
    {
      "name": "Object_3",
      "primitives": [
        {
          "attributes": {
            "NORMAL": 13,
            "POSITION": 12,
            "TEXCOORD_0": 14
          },
          "indices": 15,
          "material": 3,
          "mode": 4
        }
      ]
    }
  ],
  "nodes": [
    {
      "children": [
        1
      ],
      "matrix": [
        1.0,
        0.0,
        0.0,
        0.0,
        0.0,
        2.220446049250313e-16,
        -1.0,
        0.0,
        0.0,
        1.0,
        2.220446049250313e-16,
        0.0,
        0.0,
        0.0,
        0.0,
        1.0
      ],
      "name": "Sketchfab_model"
    },
    {
      "children": [
        2
      ],
      "name": "root"
    },
    {
      "children": [
        3,
        6,
        8
      ],
      "matrix": [
        1.0,
        0.0,
        0.0,
        0.0,
        0.0,
        2.220446049250313e-16,
        1.0,
        0.0,
        0.0,
        -1.0,
        2.220446049250313e-16,
        0.0,
        0.0,
        0.0,
        0.0,
        1.0
      ],
      "name": "GLTF_SceneRootNode"
    },
    {
      "children": [
        4,
        5
      ],
      "matrix": [
        1.0,
        0.0,
        0.0,
        0.0,
        0.0,
        1.0,
        0.0,
        0.0,
        0.0,
        0.0,
        1.0,
        0.0,
        0.0,
        -0.05521932244300842,
        0.02691974863409996,
        1.0
      ],
      "name": "Cube_0"
    },
    {
      "mesh": 0,
      "name": "Object_4"
    },
    {
      "mesh": 1,
      "name": "Object_5"
    },
    {
      "children": [
        7
      ],
      "matrix": [
        0.27191901206970215,
        0.0,
        0.0,
        0.0,
        -0.0,
        3.681122092286309e-05,
        -0.2719190095780301,
        0.0,
        0.0,
        0.2719190095780301,
        3.681122092286309e-05,
        0.0,
        0.0,
        -0.05521932244300842,
        0.02691974863409996,
        1.0
      ],
      "name": "Plane_1"
    },
    {
      "mesh": 2,
      "name": "Object_7"
    },
    {
      "children": [
        9
      ],
      "name": "Cube.001_2"
    },
    {
      "mesh": 3,
      "name": "Object_9"
    }
  ],
  "scene": 0,
  "scenes": [
    {
      "name": "Sketchfab_Scene",
      "nodes": [
        0
      ]
    }
  ]
}
