{
  "accessors": [
    {
      "bufferView": 2,
      "componentType": 5126,
      "count": 13131,
      "max": [
        126.24227142333984,
        306.8699951171875,
        1.7862284183502197
      ],
      "min": [
        -126.24224090576172,
        -305.93804931640625,
        -265.1815185546875
      ],
      "type": "VEC3"
    },
    {
      "bufferView": 2,
      "byteOffset": 157572,
      "componentType": 5126,
      "count": 13131,
      "max": [
        1.0,
        1.0,
        1.0
      ],
      "min": [
        -1.0,
        -1.0,
        -1.0
      ],
      "type": "VEC3"
    },
    {
      "bufferView": 3,
      "componentType": 5126,
      "count": 13131,
      "max": [
        1.0,
        1.0,
        1.0,
        1.0
      ],
      "min": [
        -1.0,
        -1.0,
        -1.0,
        -1.0
      ],
      "type": "VEC4"
    },
    {
      "bufferView": 1,
      "componentType": 5126,
      "count": 13131,
      "max": [
        0.9989300966262817,
        0.9990234375
      ],
      "min": [
        0.002772110514342785,
        0.002772110514342785
      ],
      "type": "VEC2"
    },
    {
      "bufferView": 0,
      "componentType": 5125,
      "count": 36486,
      "type": "SCALAR"
    },
    {
      "bufferView": 2,
      "byteOffset": 315144,
      "componentType": 5126,
      "count": 2614,
      "max": [
        125.3960952758789,
        305.0504455566406,
        1.063978672027588
      ],
      "min": [
        -124.37432098388672,
        -301.396484375,
        -263.3865966796875
      ],
      "type": "VEC3"
    },
    {
      "bufferView": 2,
      "byteOffset": 346512,
      "componentType": 5126,
      "count": 2614,
      "max": [
        1.0,
        1.0,
        1.0
      ],
      "min": [
        -1.0,
        -1.0,
        -1.0
      ],
      "type": "VEC3"
    },
    {
      "bufferView": 3,
      "byteOffset": 210096,
      "componentType": 5126,
      "count": 2614,
      "max": [
        1.0,
        1.0,
        1.0,
        1.0
      ],
      "min": [
        -1.0,
        -1.0,
        -1.0,
        -1.0
      ],
      "type": "VEC4"
    },
    {
      "bufferView": 1,
      "byteOffset": 105048,
      "componentType": 5126,
      "count": 2614,
      "max": [
        0.998046875,
        0.9021393656730652
      ],
      "min": [
        0.001953125,
        0.001953125
      ],
      "type": "VEC2"
    },
    {
      "bufferView": 0,
      "byteOffset": 145944,
      "componentType": 5125,
      "count": 9024,
      "type": "SCALAR"
    },
    {
      "bufferView": 2,
      "byteOffset": 377880,
      "componentType": 5126,
      "count": 270,
      "max": [
        120.77903747558594,
        300.8009338378906,
        -37.785667419433594
      ],
      "min": [
        -123.8499526977539,
        -296.8424072265625,
        -261.1567077636719
      ],
      "type": "VEC3"
    },
    {
      "bufferView": 2,
      "byteOffset": 381120,
      "componentType": 5126,
      "count": 270,
      "max": [
        1.0,
        1.0,
        0.38155871629714966
      ],
      "min": [
        -1.0,
        -1.0,
        -1.0
      ],
      "type": "VEC3"
    },
    {
      "bufferView": 3,
      "byteOffset": 251920,
      "componentType": 5126,
      "count": 270,
      "max": [
        1.0,
        1.0,
        1.0,
        1.0
      ],
      "min": [
        -0.5350736379623413,
        -1.0,
        -1.0,
        1.0
      ],
      "type": "VEC4"
    },
    {
      "bufferView": 1,
      "byteOffset": 125960,
      "componentType": 5126,
      "count": 270,
      "max": [
        0.9741004705429077,
        0.99609375
      ],
      "min": [
        0.00390625,
        0.00390625
      ],
      "type": "VEC2"
    },
    {
      "bufferView": 0,
      "byteOffset": 182040,
      "componentType": 5125,
      "count": 708,
      "type": "SCALAR"
    }
  ],
  "asset": {
    "extras": {
      "author": "Kateryna H. (https://sketchfab.com/hekava)",
      "license": "CC-BY-4.0 (http://creativecommons.org/licenses/by/4.0/)",
      "source": "https://sketchfab.com/3d-models/shipping-container-6843bfb88ef74e36a2a61ad15ae89d74",
      "title": "Shipping Container"
    },
    "generator": "Sketchfab-14.32.1",
    "version": "2.0"
  },
  "bufferViews": [
    {
      "buffer": 0,
      "byteLength": 184872,
      "name": "floatBufferViews",
      "target": 34963
    },
    {
      "buffer": 0,
      "byteLength": 128120,
      "byteOffset": 184872,
      "byteStride": 8,
      "name": "floatBufferViews",
      "target": 34962
    },
    {
      "buffer": 0,
      "byteLength": 384360,
      "byteOffset": 312992,
      "byteStride": 12,
      "name": "floatBufferViews",
      "target": 34962
    },
    {
      "buffer": 0,
      "byteLength": 256240,
      "byteOffset": 697352,
      "byteStride": 16,
      "name": "floatBufferViews",
      "target": 34962
    }
  ],
  "buffers": [
    {
      "byteLength": 953592,
      "uri": "scene.bin"
    }
  ],
  "images": [
    {
      "uri": "textures/UV_Shell.001_baseColor.png"
    },
    {
      "uri": "textures/UV_Shell.001_metallicRoughness.png"
    },
    {
      "uri": "textures/UV_Shell.001_normal.png"
    },
    {
      "uri": "textures/UV_Shell.002_baseColor.png"
    },
    {
      "uri": "textures/UV_Shell.002_metallicRoughness.png"
    },
    {
      "uri": "textures/UV_Shell.002_normal.png"
    },
    {
      "uri": "textures/UV_Shell.003_baseColor.png"
    },
    {
      "uri": "textures/UV_Shell.003_metallicRoughness.png"
    },
    {
      "uri": "textures/UV_Shell.003_normal.png"
    }
  ],
  "materials": [
    {
      "doubleSided": true,
      "name": "UV_Shell.001",
      "normalTexture": {
        "index": 2
      },
      "pbrMetallicRoughness": {
        "baseColorTexture": {
          "index": 0
        },
        "metallicRoughnessTexture": {
          "index": 1
        }
      }
    },
    {
      "doubleSided": true,
      "name": "UV_Shell.002",
      "normalTexture": {
        "index": 5
      },
      "pbrMetallicRoughness": {
        "baseColorTexture": {
          "index": 3
        },
        "metallicRoughnessTexture": {
          "index": 4
        }
      }
    },
    {
      "alphaMode": "BLEND",
      "doubleSided": true,
      "name": "UV_Shell.003",
      "normalTexture": {
        "index": 8
      },
      "pbrMetallicRoughness": {
        "baseColorTexture": {
          "index": 6
        },
        "metallicRoughnessTexture": {
          "index": 7
        }
      }
    }
  ],
  "meshes": [
    {
      "name": "Container_UV_Shell.001_0",
      "primitives": [
        {
          "attributes": {
            "NORMAL": 1,
            "POSITION": 0,
            "TANGENT": 2,
            "TEXCOORD_0": 3
          },
          "indices": 4,
          "material": 0,
          "mode": 4
        }
      ]
    },
    {
      "name": "Container_UV_Shell.002_0",
      "primitives": [
        {
          "attributes": {
            "NORMAL": 6,
            "POSITION": 5,
            "TANGENT": 7,
            "TEXCOORD_0": 8
          },
          "indices": 9,
          "material": 1,
          "mode": 4
        }
      ]
    },
    {
      "name": "Container_UV_Shell.003_0",
      "primitives": [
        {
          "attributes": {
            "NORMAL": 11,
            "POSITION": 10,
            "TANGENT": 12,
            "TEXCOORD_0": 13
          },
          "indices": 14,
          "material": 2,
          "mode": 4
        }
      ]
    }
  ],
  "nodes": [
    {
      "children": [
        1
      ],
      "matrix": [
        1.0,
        0.0,
        0.0,
        0.0,
        0.0,
        2.220446049250313e-16,
        -1.0,
        0.0,
        0.0,
        1.0,
        2.220446049250313e-16,
        0.0,
        0.0,
        0.0,
        0.0,
        1.0
      ],
      "name": "Sketchfab_model"
    },
    {
      "children": [
        2
      ],
      "matrix": [
        0.009999999776482582,
        0.0,
        0.0,
        0.0,
        0.0,
        0.0,
        0.009999999776482582,
        0.0,
        0.0,
        -0.009999999776482582,
        0.0,
        0.0,
        0.0,
        0.0,
        0.0,
        1.0
      ],
      "name": "a092ddbaf26b45fa8ddd5d850878ae24.fbx"
    },
    {
      "children": [
        3
      ],
      "name": "RootNode"
    },
    {
      "children": [
        4,
        5,
        6
      ],
      "matrix": [
        1.0,
        0.0,
        0.0,
        0.0,
        0.0,
        -1.6292067939183141e-07,
        0.9999999999999868,
        0.0,
        0.0,
        -0.9999999999999868,
        -1.6292067939183141e-07,
        0.0,
        0.0,
        0.0,
        0.0,
        1.0
      ],
      "name": "Container"
    },
    {
      "mesh": 0,
      "name": "Container_UV_Shell.001_0"
    },
    {
      "mesh": 1,
      "name": "Container_UV_Shell.002_0"
    },
    {
      "mesh": 2,
      "name": "Container_UV_Shell.003_0"
    }
  ],
  "samplers": [
    {
      "magFilter": 9729,
      "minFilter": 9987,
      "wrapS": 10497,
      "wrapT": 10497
    }
  ],
  "scene": 0,
  "scenes": [
    {
      "name": "Sketchfab_Scene",
      "nodes": [
        0
      ]
    }
  ],
  "textures": [
    {
      "sampler": 0,
      "source": 0
    },
    {
      "sampler": 0,
      "source": 1
    },
    {
      "sampler": 0,
      "source": 2
    },
    {
      "sampler": 0,
      "source": 3
    },
    {
      "sampler": 0,
      "source": 4
    },
    {
      "sampler": 0,
      "source": 5
    },
    {
      "sampler": 0,
      "source": 6
    },
    {
      "sampler": 0,
      "source": 7
    },
    {
      "sampler": 0,
      "source": 8
    }
  ]
}
